<?xml version="1.0" encoding="UTF-8" standalone="no"?>
<!-- Generator: Adobe Illustrator 16.0.0, SVG Export Plug-In . SVG Version: 6.00 Build 0)  -->

<svg
   xmlns:dc="http://purl.org/dc/elements/1.1/"
   xmlns:cc="http://creativecommons.org/ns#"
   xmlns:rdf="http://www.w3.org/1999/02/22-rdf-syntax-ns#"
   xmlns:svg="http://www.w3.org/2000/svg"
   xmlns="http://www.w3.org/2000/svg"
   xmlns:sodipodi="http://sodipodi.sourceforge.net/DTD/sodipodi-0.dtd"
   xmlns:inkscape="http://www.inkscape.org/namespaces/inkscape"
   version="1.1"
   id="Capa_1"
   x="0px"
   y="0px"
   width="64"
   height="64"
   viewBox="0 0 63.999998 63.999998"
   xml:space="preserve"
   inkscape:version="0.91 r13725"
   sodipodi:docname="github.svg"><metadata
     id="metadata41"><rdf:RDF><cc:Work
         rdf:about=""><dc:format>image/svg+xml</dc:format><dc:type
           rdf:resource="http://purl.org/dc/dcmitype/StillImage" /><dc:title /></cc:Work></rdf:RDF></metadata><defs
     id="defs39" /><sodipodi:namedview
     pagecolor="#ffffff"
     bordercolor="#666666"
     borderopacity="1"
     objecttolerance="10"
     gridtolerance="10"
     guidetolerance="10"
     inkscape:pageopacity="0"
     inkscape:pageshadow="2"
     inkscape:window-width="2560"
     inkscape:window-height="1017"
     id="namedview37"
     showgrid="false"
     inkscape:zoom="6.0883393"
     inkscape:cx="-5.0710442"
     inkscape:cy="34.83814"
     inkscape:window-x="-8"
     inkscape:window-y="-8"
     inkscape:window-maximized="1"
     inkscape:current-layer="g4194"
     inkscape:snap-bbox="true"
     inkscape:bbox-paths="true"
     inkscape:bbox-nodes="true"
     inkscape:snap-bbox-edge-midpoints="true"
     inkscape:snap-bbox-midpoints="true"
     inkscape:object-paths="true"
     inkscape:snap-intersection-paths="true"
     inkscape:object-nodes="true"
     inkscape:snap-midpoints="true"
     inkscape:snap-smooth-nodes="true"
     inkscape:snap-object-midpoints="true"
     inkscape:snap-center="true"
     inkscape:snap-text-baseline="true"
     inkscape:snap-page="true" /><g
     id="g4194"><path
       inkscape:connector-curvature="0"
       id="path5-2"
       d="m 52.780555,19.470055 c -2.146146,-3.769373 -5.057256,-6.753592 -8.734097,-8.953329 -3.677388,-2.1998482 -7.692,-3.299492 -12.046681,-3.299492 -4.354133,0 -8.370057,1.0999804 -12.04668,3.299492 -3.677168,2.199625 -6.58817,5.183956 -8.734316,8.953329 -2.1458179,3.769262 -3.2187815,7.885325 -3.2187815,12.348076 0,5.360778 1.5257691,10.181327 4.5780735,14.46288 3.051976,4.28189 6.994677,7.244791 11.827774,8.88904 0.562587,0.107036 0.979054,0.03175 1.249839,-0.223945 0.270896,-0.256034 0.406179,-0.576693 0.406179,-0.960632 0,-0.06407 -0.0054,-0.640421 -0.01577,-1.729743 -0.01073,-1.089321 -0.01576,-2.039631 -0.01576,-2.85048 l -0.718775,0.127456 c -0.458278,0.08605 -1.036407,0.122519 -1.734386,0.112197 -0.69765,-0.01 -1.421898,-0.08493 -2.171758,-0.224282 -0.750188,-0.138115 -1.447948,-0.458436 -2.093828,-0.960295 -0.645552,-0.501857 -1.10383,-1.158771 -1.374725,-1.969731 L 17.624384,45.75346 c -0.208287,-0.49075 -0.536208,-1.035916 -0.984197,-1.633478 -0.44799,-0.598123 -0.901014,-1.003603 -1.359292,-1.217114 l -0.218796,-0.160554 c -0.145791,-0.106699 -0.281074,-0.235389 -0.406178,-0.384723 -0.124995,-0.149334 -0.218577,-0.298781 -0.281074,-0.448452 -0.06261,-0.149783 -0.01073,-0.272639 0.156188,-0.369016 0.166916,-0.09638 0.468567,-0.143164 0.906268,-0.143164 l 0.624755,0.0957 c 0.416686,0.08561 0.932098,0.341304 1.546893,0.768663 0.614467,0.427021 1.119591,0.982172 1.515481,1.665228 0.479402,0.875811 1.056983,1.543159 1.734385,2.002383 0.676856,0.459222 1.359293,0.688441 2.046655,0.688441 0.687362,0 1.281033,-0.05341 1.781231,-0.159657 0.499651,-0.106811 0.968436,-0.267365 1.406137,-0.480764 0.187493,-1.431411 0.697979,-2.531055 1.531023,-3.299716 -1.187341,-0.127905 -2.254833,-0.320548 -3.203021,-0.576693 -0.94764,-0.256483 -1.926912,-0.672735 -2.937159,-1.249877 -1.010795,-0.576356 -1.849312,-1.292062 -2.515768,-2.145881 -0.666567,-0.854269 -1.213611,-1.975792 -1.640366,-3.363557 -0.426975,-1.388327 -0.640516,-2.989828 -0.640516,-4.804954 0,-2.58446 0.823082,-4.783748 2.468921,-6.599096 -0.770984,-1.943029 -0.698198,-4.121225 0.218577,-6.53436 0.604178,-0.192418 1.500157,-0.04802 2.687499,0.432296 1.187561,0.48054 2.057051,0.892191 2.60935,1.233494 0.552297,0.341192 0.994814,0.630324 1.328207,0.864816 1.937858,-0.555039 3.937666,-0.832615 5.999972,-0.832615 2.062305,0 4.062552,0.277576 6.000519,0.832615 l 1.187451,-0.768438 c 0.812029,-0.512741 1.770943,-0.982623 2.874444,-1.409757 1.104157,-0.42691 1.948474,-0.544493 2.532076,-0.352074 0.937133,2.413247 1.020645,4.59133 0.249443,6.534359 1.645729,1.815349 2.46914,4.015198 2.46914,6.599096 0,1.815125 -0.214308,3.421676 -0.640626,4.820662 -0.426864,1.39921 -0.978615,2.51961 -1.65547,3.363557 -0.677621,0.843834 -1.521501,1.55393 -2.531747,2.130174 -1.010467,0.576694 -1.990067,0.992944 -2.937708,1.249427 -0.948079,0.256482 -2.01557,0.449238 -3.202911,0.577367 1.082924,0.960631 1.624495,2.476975 1.624495,4.548357 l 0,6.758418 c 0,0.383938 0.130249,0.704485 0.390964,0.960631 0.260388,0.255698 0.671602,0.330981 1.234188,0.223834 4.833755,-1.644025 8.776456,-4.607039 11.828322,-8.888929 3.051539,-4.281553 4.577855,-9.102102 4.577855,-14.46288 -0.0011,-4.46219 -1.074605,-8.577916 -3.219439,-12.347178 z"
       style="fill:#333333;fill-opacity:1" /></g></svg>