<?xml version="1.0" encoding="UTF-8" standalone="no"?>
<!-- Generator: Adobe Illustrator 16.0.0, SVG Export Plug-In . SVG Version: 6.00 Build 0)  -->

<svg
   xmlns:dc="http://purl.org/dc/elements/1.1/"
   xmlns:cc="http://creativecommons.org/ns#"
   xmlns:rdf="http://www.w3.org/1999/02/22-rdf-syntax-ns#"
   xmlns:svg="http://www.w3.org/2000/svg"
   xmlns="http://www.w3.org/2000/svg"
   xmlns:sodipodi="http://sodipodi.sourceforge.net/DTD/sodipodi-0.dtd"
   xmlns:inkscape="http://www.inkscape.org/namespaces/inkscape"
   version="1.1"
   id="Layer_1"
   x="0px"
   y="0px"
   width="64"
   height="64"
   viewBox="0 0 63.999998 64"
   enable-background="new 0 0 568.291 144"
   xml:space="preserve"
   inkscape:version="0.91 r13725"
   sodipodi:docname="LinkedIn_Logo_2013.svg"><metadata
     id="metadata37"><rdf:RDF><cc:Work
         rdf:about=""><dc:format>image/svg+xml</dc:format><dc:type
           rdf:resource="http://purl.org/dc/dcmitype/StillImage" /><dc:title></dc:title></cc:Work></rdf:RDF></metadata><defs
     id="defs35" /><sodipodi:namedview
     pagecolor="#ffffff"
     bordercolor="#666666"
     borderopacity="1"
     objecttolerance="10"
     gridtolerance="10"
     guidetolerance="10"
     inkscape:pageopacity="0"
     inkscape:pageshadow="2"
     inkscape:window-width="2560"
     inkscape:window-height="1017"
     id="namedview33"
     showgrid="false"
     inkscape:zoom="5.6568542"
     inkscape:cx="21.300716"
     inkscape:cy="31.76045"
     inkscape:window-x="-8"
     inkscape:window-y="-8"
     inkscape:window-maximized="1"
     inkscape:current-layer="Layer_1" /><g
     id="g4261"><path
       style="fill:#ffffff"
       inkscape:connector-curvature="0"
       id="path29-2-8"
       d="m 9.4890359,23.99458 9.4925921,0 0,30.54216 -9.4925921,0 0,-30.54216 z M 14.237332,8.812835 c 3.034572,0 5.500717,2.466145 5.500717,5.50205 0,3.038572 -2.466145,5.504717 -5.500717,5.504717 -3.042572,0 -5.5051614,-2.466145 -5.5051614,-5.504717 4.445e-4,-3.035461 2.4630344,-5.50205 5.5051614,-5.50205" /><path
       style="fill:#ffffff"
       inkscape:connector-curvature="0"
       id="path31-9-4"
       d="m 24.935664,23.99458 9.10416,0 0,4.17321 0.127108,0 c 1.267516,-2.40126 4.363419,-4.93274 8.981497,-4.93274 9.612144,0 11.386755,6.32603 11.386755,14.54888 l 0,16.75237 -9.485926,0 0,-14.85287 c 0,-3.54167 -0.06489,-8.09753 -4.932735,-8.09753 -4.938956,0 -5.697155,3.8581 -5.697155,7.84153 l 0,15.10887 -9.484148,0 0,-30.54172 z" /></g></svg>