<svg xmlns:rdf="http://www.w3.org/1999/02/22-rdf-syntax-ns#" xmlns="http://www.w3.org/2000/svg" viewBox="0 0 643.38222 451.2827" height="451.28271" width="643.3822" version="1.1" xmlns:cc="http://creativecommons.org/ns#" xmlns:dc="http://purl.org/dc/elements/1.1/">
 <g transform="translate(-57.732008,-186.30329)">
  <path style="stroke-linejoin:round;stroke:#000;stroke-width:10;stroke-linecap:round;fill:none" d="m676.06952 434.31037s-15.06113 18.79901-38.31515 18.79901c-15.47737 0-24.18194-10.83595-18.01639-30.29696l15.40108-48.6122c5.15901-16.28396-1.52702-28.64836-16.69576-30.03732-15.16873-1.38896-33.24659 5.76173-37.96917 20.29719l-28.8964 88.64929s19.26069-59.37069 28.8964-88.64929c3.5916-10.91327 0.94884-19.12012-5.60896-20.29719s-16.49629 5.2464-21.10032 20.29719c-7.9841 26.10041-15.48203 49.30923-22.12963 69.85028-3.32365 10.27008-11.39434 18.74501-20.96165 18.79901-9.5673 0.054-17.48939-6.75824-13.72643-18.79901l28.56009-90.14747s-17.25367 54.77124-28.56009 90.14747c-3.50985 10.98185-11.92789 18.79901-20.26234 18.79901s-17.59601-6.61914-14.61143-18.79901c5.36695-21.90217 13.90443-49.42933 20.26561-69.85028 3.22645-10.35768-2.63467-18.86862-11.55538-20.29719s-22.5136 6.15531-26.5984 20.29719l-26.96469 88.64929s21.69721-71.1937 26.96469-88.64929c2.85491-9.66732-2.18552-18.81765-12.15161-20.29719-9.96609-1.47953-23.21396 5.92515-27.63071 20.29719l-27.39158 88.64929s18.83467-60.74774 27.39158-88.64929c3.13424-10.30875 0.72908-19.54788-5.87417-20.29719-6.60326-0.7493-15.17092 5.12993-20.37181 20.29719-5.56866 17.75894-15.13693 51.05684-21.75948 69.85028-4.69386 13.3202-13.3806 18.79901-22.06414 18.79901s-14.8142-10.3914-12.20979-18.79901l4.32616-13.96578 23.44598-75.68858-23.44598 75.68858c-6.42699 20.74769-35.18116 32.96763-51.67477 32.76479-44.16462-0.54314-44.00762-46.79379-13.68527-72.67819 39.36472-33.60334 88.80602-35.77518 88.80602-35.77518s-49.81087 1.95424-88.80602 35.77518c-22.16792 18.89299-56.43462 59.88523-68.57709 72.67819-53.78749 56.66892-75.93739 79.09288-89.33782 108.72407-11.321248 25.03367-9.268219 47.51123 1.88466 50.45892 22.10854 5.84324 59.69242-73.68511 87.45316-159.18299 25.95973-79.95104 61.97962-180.86502 53.46324-217.33258-6.31562-27.04377-33.20644-32.30291-74.69593-12.54877-38.67147 18.41241-96.67589 67.47633-87.602069 130.90249 12.369279 86.46138 108.834759 98.97886 108.834759 98.97886"/>
  <circle cx="534.88544" cy="314.56146" r="7.5" style="stroke-width:0"/>
 </g>
</svg>
