<?xml version="1.0" encoding="UTF-8" standalone="no"?>
<!-- Created with Inkscape (http://www.inkscape.org/) -->

<svg
   xmlns:dc="http://purl.org/dc/elements/1.1/"
   xmlns:cc="http://creativecommons.org/ns#"
   xmlns:rdf="http://www.w3.org/1999/02/22-rdf-syntax-ns#"
   xmlns:svg="http://www.w3.org/2000/svg"
   xmlns="http://www.w3.org/2000/svg"
   xmlns:sodipodi="http://sodipodi.sourceforge.net/DTD/sodipodi-0.dtd"
   xmlns:inkscape="http://www.inkscape.org/namespaces/inkscape"
   width="170.28787mm"
   height="116.07312mm"
   viewBox="0 0 603.38222 411.2827"
   id="svg2"
   version="1.1"
   inkscape:version="0.91 r13725"
   sodipodi:docname="signature.svg">
  <defs
     id="defs4" />
  <sodipodi:namedview
     id="base"
     pagecolor="#ffffff"
     bordercolor="#666666"
     borderopacity="1.0"
     inkscape:pageopacity="0.0"
     inkscape:pageshadow="2"
     inkscape:zoom="1.4"
     inkscape:cx="266.9518"
     inkscape:cy="199.68253"
     inkscape:document-units="px"
     inkscape:current-layer="layer1"
     showgrid="false"
     inkscape:snap-global="true"
     inkscape:window-width="2560"
     inkscape:window-height="1017"
     inkscape:window-x="-8"
     inkscape:window-y="-8"
     inkscape:window-maximized="1"
     inkscape:object-paths="true"
     inkscape:snap-intersection-paths="true"
     inkscape:snap-smooth-nodes="true"
     inkscape:object-nodes="true"
     inkscape:snap-midpoints="true"
     inkscape:snap-object-midpoints="true"
     inkscape:snap-text-baseline="true"
     inkscape:snap-center="true"
     inkscape:snap-page="true"
     showguides="false"
     fit-margin-top="0"
     fit-margin-left="0"
     fit-margin-right="0"
     fit-margin-bottom="0" />
  <metadata
     id="metadata7">
    <rdf:RDF>
      <cc:Work
         rdf:about="">
        <dc:format>image/svg+xml</dc:format>
        <dc:type
           rdf:resource="http://purl.org/dc/dcmitype/StillImage" />
        <dc:title></dc:title>
      </cc:Work>
    </rdf:RDF>
  </metadata>
  <g
     inkscape:label="Layer 1"
     inkscape:groupmode="layer"
     id="layer1"
     transform="translate(-77.731985,-206.3033)">
    <path
       id="path3348-8"
       style="fill:none;fill-rule:evenodd;stroke:#000000;stroke-width:10;stroke-linecap:round;stroke-linejoin:round;stroke-miterlimit:4;stroke-dasharray:none;stroke-dashoffset:0;stroke-opacity:1"
       d="m 192.51252,453.10938 c 0,0 -96.46548,-12.51748 -108.834759,-98.97886 -9.073821,-63.42616 48.930599,-112.49008 87.602069,-130.90249 41.48949,-19.75414 68.38031,-14.495 74.69593,12.54877 8.51638,36.46756 -27.50351,137.38154 -53.46324,217.33258 -27.76074,85.49788 -65.34462,165.02623 -87.45316,159.18299 -11.152879,-2.94769 -13.205908,-25.42525 -1.88466,-50.45892 13.40043,-29.63119 35.55033,-52.05515 89.33782,-108.72407 12.14247,-12.79296 46.40917,-53.7852 68.57709,-72.67819 38.99515,-33.82094 88.80602,-35.77518 88.80602,-35.77518 m -88.80602,35.77518 c -30.5803,26.56974 -30.47935,72.13505 13.68527,72.67819 16.49361,0.20284 45.24778,-12.0171 51.67477,-32.76479 l 23.44598,-75.68858 m -23.44598,75.68858 -4.32616,13.96578 c -2.60441,8.40761 3.52625,18.79901 12.20979,18.79901 8.68354,0 17.37028,-5.47881 22.06414,-18.79901 6.62255,-18.79344 16.19082,-52.09134 21.75948,-69.85028 5.20089,-15.16726 13.76855,-21.04649 20.37181,-20.29719 6.60325,0.74931 9.00841,9.98844 5.87417,20.29719 -8.55691,27.90155 -27.39158,88.64929 -27.39158,88.64929 m 27.39158,-88.64929 c 4.41675,-14.37204 17.66462,-21.77672 27.63071,-20.29719 9.96609,1.47954 15.00652,10.62987 12.15161,20.29719 -5.26748,17.45559 -26.96469,88.64929 -26.96469,88.64929 m 26.96469,-88.64929 c 4.0848,-14.14188 17.67769,-21.72576 26.5984,-20.29719 8.92071,1.42857 14.78183,9.93951 11.55538,20.29719 -6.36118,20.42095 -14.89866,47.94811 -20.26561,69.85028 -2.98458,12.17987 6.27698,18.79901 14.61143,18.79901 8.33445,0 16.75249,-7.81716 20.26234,-18.79901 11.30642,-35.37623 28.56009,-90.14747 28.56009,-90.14747 m -28.56009,90.14747 c -3.76296,12.04077 4.15913,18.853 13.72643,18.79901 9.56731,-0.054 17.638,-8.52893 20.96165,-18.79901 6.6476,-20.54105 14.14553,-43.74987 22.12963,-69.85028 4.60403,-15.05079 14.54252,-21.47426 21.10032,-20.29719 6.5578,1.17707 9.20056,9.38392 5.60896,20.29719 -9.63571,29.2786 -28.8964,88.64929 -28.8964,88.64929 m 28.8964,-88.64929 c 4.72258,-14.53546 22.80044,-21.68615 37.96917,-20.29719 15.16874,1.38896 21.85477,13.75336 16.69576,30.03732 -7.28426,22.99214 -9.60878,30.32927 -15.40108,48.6122 -6.16555,19.46101 2.53902,30.29696 18.01639,30.29696 23.25402,0 38.31515,-18.79901 38.31515,-18.79901"
       inkscape:connector-curvature="0"
       sodipodi:nodetypes="cssssssscccssccssscscccscccsssssccsssssccssssc" />
    <circle
       style="opacity:1;fill:#000000;stroke-width:3;stroke-linecap:round;stroke-linejoin:round;stroke-miterlimit:4;stroke-dasharray:none;stroke-dashoffset:4.0999999"
       id="path4184"
       cx="534.88544"
       cy="314.56146"
       r="7.5" />
  </g>
</svg>
