<?xml version="1.0" encoding="UTF-8" standalone="no"?>
<!-- Created with Inkscape (http://www.inkscape.org/) -->

<svg
   xmlns:dc="http://purl.org/dc/elements/1.1/"
   xmlns:cc="http://creativecommons.org/ns#"
   xmlns:rdf="http://www.w3.org/1999/02/22-rdf-syntax-ns#"
   xmlns:svg="http://www.w3.org/2000/svg"
   xmlns="http://www.w3.org/2000/svg"
   xmlns:sodipodi="http://sodipodi.sourceforge.net/DTD/sodipodi-0.dtd"
   xmlns:inkscape="http://www.inkscape.org/namespaces/inkscape"
   width="550"
   height="350"
   viewBox="0 0 550.00001 350.00001"
   id="svg4230"
   version="1.1"
   inkscape:version="0.91 r13725"
   sodipodi:docname="derryberry.svg">
  <defs
     id="defs4232">
    <clipPath
       clipPathUnits="userSpaceOnUse"
       id="clipPath7520">
      <path
         transform="translate(-242.34138,-16.280984)"
         sodipodi:type="inkscape:offset"
         inkscape:radius="-10.466157"
         inkscape:original="M 699.29492 436.41797 C 689.76517 436.11302 680.13574 438.30543 671.15234 440.9375 C 661.23285 443.86322 650.83191 446.23646 640.48047 448.30469 C 630.49704 452.41253 620.0792 458.98457 617.47852 469.91992 C 614.6635 474.4153 618.36294 476.90612 615.61133 483.35742 C 615.77069 490.45108 611.23244 496.90246 614.09766 502.77148 C 614.11076 511.41086 614.82027 522.01014 612.0918 531.36523 C 607.52647 549.54604 613.61169 568.15554 612.08789 586.5918 C 611.23305 592.57496 611.86994 605.22022 611.96484 608.98633 L 611.96094 609.47656 C 611.65916 610.03256 609.97736 607.67254 609.70703 606.31445 C 609.56805 605.61622 609.29726 604.94936 609.10742 604.83203 C 608.91759 604.71471 608.76367 604.3374 608.76367 603.99219 C 608.76367 603.64699 608.50211 603.07657 608.18359 602.72461 C 607.81769 602.32029 607.3915 600.26058 607.02539 597.13086 C 606.16713 589.79375 605.35391 585.52011 604.11523 581.83398 C 603.50587 580.02062 602.91646 578.44575 602.80469 578.33398 C 602.69291 578.22221 602.2046 578.34258 601.7207 578.60156 C 601.2368 578.86053 599.74074 579.1103 598.39453 579.1582 C 596.40001 579.22915 595.68523 579.44552 594.5332 580.32422 C 593.27342 581.2851 593.1373 581.55597 593.29492 582.81445 C 593.62462 585.44684 595.55146 592.28191 596.48047 594.11523 C 598.33564 597.77618 598.77464 600.15318 598.42773 604.65039 C 597.79912 612.79946 597.96929 614.87085 599.70898 620.23633 C 602.82951 629.86053 604.48047 636.7532 604.48047 640.16016 C 604.48047 643.649 606.16272 648.06169 608.5957 650.95312 C 609.92198 652.52931 616.51753 657.47223 618.27148 658.20508 C 619.02895 658.52157 619.90777 659.17659 620.22461 659.66016 C 620.85674 660.62491 621.76056 667.33682 622.35938 675.51562 C 623.07234 685.25401 624.43816 691.44857 627.28711 697.85156 C 628.0615 699.592 629.43628 702.78992 630.3418 704.95898 C 632.0615 709.07828 632.19764 709.2982 635.55273 713.32422 C 641.93691 720.98505 649.52149 728.25684 658.20312 735.03906 C 676.66269 749.45987 682.74863 753.4043 689.87891 755.57617 C 695.83603 757.39072 703.15256 758.85095 708.0332 759.19727 C 715.35903 759.71713 726.01712 759.64553 729.30469 759.05469 C 730.98771 758.75221 733.55112 758.39595 735.00195 758.26367 C 737.92839 757.99689 745.21732 756.00586 749.96289 754.17578 C 753.3461 752.87106 757.73744 750.02698 763.39258 745.47852 C 765.41328 743.85326 769.41788 740.84192 772.29297 738.78711 C 777.72768 734.90297 781.93549 730.75763 792.31055 719.07031 C 794.66356 716.41968 797.6023 713.20069 798.83984 711.91602 C 801.8875 708.75231 804.73423 704.37946 806.17773 700.64453 C 806.83572 698.94203 808.03645 696.22756 808.84766 694.61133 C 810.97819 690.36654 813.4218 683.80783 813.71289 681.55078 C 813.85095 680.48022 814.3075 678.32553 814.72656 676.76172 C 815.14561 675.19791 815.65721 672.83256 815.86523 671.50586 C 816.07325 670.17916 816.50863 668.14014 816.83203 666.97461 C 817.15544 665.80907 817.57857 662.86051 817.77344 660.42188 C 818.17853 655.3526 818.69909 654.40742 821.48633 653.6875 C 827.27798 652.19156 829.43799 651.33162 831.11719 649.85352 C 833.6162 647.6538 836.66631 643.04774 837.45312 640.28516 C 837.81903 639.00049 838.361 637.57062 838.6582 637.10742 C 838.95539 636.64421 839.72737 634.05532 840.37305 631.35352 C 841.01874 628.65172 841.73598 626.08754 841.9668 625.65625 C 842.19762 625.22496 842.54086 623.95988 842.73047 622.8457 C 843.80919 616.50715 844.74903 613.24137 846.46484 609.86328 L 848.27344 606.30273 L 847.58984 604.50977 C 846.81546 602.48208 846.97877 599.99317 848.01758 597.98438 C 848.50702 597.03787 848.58785 596.20685 848.37891 594.25586 C 848.23106 592.87521 848.30142 590.31666 848.53711 588.57031 C 848.77279 586.82395 849.22108 583.54263 849.5332 581.2793 C 850.22818 576.23967 849.93421 574.78592 847.90039 573.23633 C 846.58391 572.23316 846.2545 572.16419 843.17969 572.24219 C 839.88974 572.32563 839.86981 572.32088 838.64062 571.01758 L 837.40625 569.70898 L 835.52734 572.29688 C 834.49335 573.72017 833.22443 575.93407 832.70898 577.21875 C 832.19353 578.50342 831.47827 579.78106 831.11914 580.05664 C 830.33162 580.66094 829.621 584.15917 829.04492 590.26172 C 828.78575 593.00712 828.41031 594.97935 828.07422 595.36328 C 827.77278 595.70763 827.53106 596.49607 827.53906 597.11523 C 827.54659 597.73439 827.27539 599.99365 826.93555 602.13477 C 826.59571 604.27589 826.28389 606.7144 826.24219 607.55469 C 826.0911 610.5962 824.04297 609.42674 824.04297 606.29883 C 824.04297 605.25317 824.37535 603.98559 824.88867 603.07227 C 825.63765 601.73964 825.6749 601.44498 825.2168 600.48828 C 824.86781 599.75946 824.6643 597.32266 824.5918 592.98633 C 823.28793 572.09787 824.6956 551.13935 825.29492 530.31055 C 825.10886 517.22483 820.30346 527.8105 816.20117 529.8457 C 814.88384 516.18433 808.09924 504.00058 802.67773 491.59375 C 799.79986 478.45191 786.23692 474.35073 777.98828 465.39844 C 764.65303 461.66496 753.66713 452.93574 741.26953 447.2207 C 730.27215 444.17148 720.07034 437.75594 708.76367 437.63086 C 705.63703 436.89771 702.47151 436.51962 699.29492 436.41797 z "
         style="fill:none;stroke:#000000;stroke-width:0.5;stroke-linecap:round;stroke-linejoin:round;stroke-miterlimit:4;stroke-dasharray:none;stroke-opacity:1"
         id="path7522"
         d="m 698.96094,446.87891 c -7.70172,-0.24646 -16.31357,1.59598 -24.86524,4.10156 -9.91751,2.92437 -20.14482,5.25878 -30.2539,7.30273 -8.39764,3.56819 -14.85283,8.47119 -16.18164,14.0586 a 10.467204,10.467204 0 0 1 -0.78516,2.16797 c 0.0146,0.0952 0.0279,0.0682 0.043,0.19921 0.20104,1.7477 0.35851,5.95566 -0.92969,10.38086 -0.20844,4.81833 -1.41544,8.50365 -1.95703,10.81836 -0.61552,2.6307 -0.34294,2.65321 -0.5293,2.27149 a 10.467204,10.467204 0 0 1 1.0625,4.57617 c 0.0122,8.07934 1.0342,19.67586 -2.42578,31.53906 l 0.10352,-0.38086 c -3.61943,14.41387 2.03523,32.24697 0.27539,53.53906 a 10.467204,10.467204 0 0 1 -0.0684,0.61915 c -0.45986,3.21859 -0.13123,16.29522 -0.0215,20.65039 a 10.467204,10.467204 0 0 1 0.004,0.34765 l -0.004,0.49024 a 10.467204,10.467204 0 0 1 -1.26757,4.9082 c -0.87513,1.61234 -2.677,3.59737 -5.00586,4.63672 -2.06425,0.92126 -4.07911,0.96377 -5.625,0.77148 2.62727,8.19197 4.41797,14.25718 4.41797,20.28321 0,0.11492 0.92814,2.77297 1.52929,3.74414 0.49604,0.40677 1.90254,1.73709 3.07422,2.61523 0.8891,0.66635 1.79779,1.3146 2.46484,1.75977 0.66706,0.44516 1.56123,0.80026 0.29102,0.26953 2.84023,1.18672 3.86732,1.09461 6.67188,5.375 2.5804,3.93818 1.75439,4.09471 2.01562,5.36914 0.26123,1.27443 0.47333,2.63172 0.68359,4.19336 0.42054,3.12328 0.80696,7.00172 1.11915,11.26562 0.66548,9.08996 1.71792,13.59824 4.05273,18.84571 0.83982,1.8875 2.20293,5.06055 3.15039,7.33007 1.69507,4.0603 0.26952,1.70633 3.59375,5.69532 5.85955,7.03129 12.90074,13.7995 21.05273,20.16797 18.30975,14.30376 22.94189,17.14707 28.28125,18.77343 5.16927,1.57457 12.30033,2.94179 15.84571,3.19336 3.2716,0.23216 7.59726,0.34347 11.33984,0.31836 3.74258,-0.0251 7.56163,-0.36212 7.33984,-0.32226 2.09588,-0.37668 4.56478,-0.72872 6.59766,-0.91407 a 10.467204,10.467204 0 0 1 0.002,0 c -0.19741,0.018 8.37808,-1.97719 12.14454,-3.42968 1.45585,-0.56145 5.38316,-2.86243 10.63671,-7.08789 2.36311,-1.90066 6.30287,-4.85655 9.37305,-7.05079 4.64788,-3.3218 8.0193,-6.59293 18.27735,-18.14843 2.43235,-2.74002 5.26389,-5.85509 6.81835,-7.46875 1.9638,-2.03858 4.34754,-5.8019 5.11329,-7.78321 0.8529,-2.20681 2.01677,-4.84048 3.07812,-6.95507 0.81544,-1.62466 1.87417,-4.10358 2.66797,-6.23438 0.79379,-2.1308 1.3351,-4.74949 1.16992,-3.46875 0.28457,-2.20666 0.73588,-4.11041 1.28516,-6.16016 0.28734,-1.07229 0.81207,-3.55489 0.9082,-4.16796 0.29999,-1.91329 0.70352,-3.84508 1.2207,-5.70899 -0.26367,0.95026 0.44135,-2.68067 0.59375,-4.58789 0.22679,-2.838 0.0934,-5.34005 2.23047,-9.2168 2.13711,-3.87674 6.98414,-6.21854 9.29883,-6.8164 5.46138,-1.41064 5.48293,-1.68947 5.33203,-1.55664 0.2303,-0.20272 3.51109,-5.72309 3.18555,-4.58008 0.27564,-0.96775 0.57587,-1.86375 0.9082,-2.74024 0.33234,-0.87648 0.32429,-1.30502 1.55469,-3.22265 -1.20639,1.88031 -0.78318,1.52546 -0.75195,1.4375 0.0312,-0.088 0.13736,-0.40841 0.25781,-0.8125 0.2409,-0.80819 0.55857,-1.99136 0.83789,-3.16016 0.3525,-1.47498 0.71738,-2.8871 1.05273,-4.08594 0.16768,-0.59941 0.32461,-1.13767 0.4961,-1.67382 0.17148,-0.53616 -0.0334,-0.51969 0.99609,-2.44336 -0.87503,1.635 -0.51825,1.20755 -0.47461,1.04687 0.0436,-0.16067 0.11896,-0.50058 0.14844,-0.67383 0.32699,-1.9214 0.73655,-3.40164 1.10937,-5.04296 -1.33926,1.48273 -3.39345,3.02437 -6.02539,3.54101 -2.91585,0.57238 -5.78441,-0.22325 -7.59961,-1.25977 -3.63039,-2.07302 -4.54062,-4.36872 -5.29101,-6.30664 -0.75039,-1.93791 -1.0293,-3.79848 -1.0293,-5.72265 0,-1.99441 0.33673,-3.62665 0.87305,-5.23047 -0.0829,-0.76413 -0.0135,-1.33432 -0.0781,-2.10938 -0.12573,-1.50829 -0.18461,-3.27569 -0.22461,-5.32031 l -0.002,-0.0664 c -1.13384,-18.24073 -0.30689,-36.01248 0.3418,-53.41407 a 10.467204,10.467204 0 0 1 -8.70313,-9.30859 c -1.04486,-10.83573 -6.99763,-22.02562 -12.69531,-35.06445 a 10.467204,10.467204 0 0 1 -0.63477,-1.95313 c -0.75263,-3.43694 -2.56387,-5.50367 -6.60351,-8.70312 -3.55908,-2.81885 -8.62851,-5.93612 -13.5625,-10.71094 -14.26617,-4.67775 -25.00841,-12.80818 -35.06641,-17.51758 -12.3454,-3.60744 -21.40906,-8.72544 -28.57226,-8.80469 a 10.467204,10.467204 0 0 1 -2.27344,-0.27539 c -2.37664,-0.55728 -4.84452,-0.85918 -7.41406,-0.9414 z m -105.4961,136.2207 c -0.001,0.0925 0.014,0.25354 0.21875,0.62109 -0.0666,-0.18476 -0.16024,-0.46483 -0.21289,-0.60547 -0.004,-0.01 -0.002,-0.006 -0.006,-0.0156 z m 244.65039,15.58398 c -0.0557,0.25177 -0.14531,0.50294 -0.29882,0.85157 -0.003,0.0171 -0.003,0.0511 -0.006,0.0684 0.0949,-0.24059 0.3057,-0.71553 0.30468,-0.91993 z m -1.47461,2.56641 c -0.27077,0.36796 -0.27818,0.53578 -0.6914,1.00781 0.48645,-0.5557 0.38826,-0.60287 0.6914,-0.98633 1.8e-4,-0.007 -1.8e-4,-0.0144 0,-0.0215 z m 0.49219,3.87305 -0.0566,0.11328 c -0.003,0.0255 -0.005,0.0255 -0.008,0.0508 0.0257,-0.0512 0.0385,-0.11294 0.0644,-0.16406 z m -0.10156,0.20117 -0.18945,0.37305 0.0332,0.0879 c 0.0648,-0.13365 0.0996,-0.29288 0.16602,-0.42578 -0.002,-0.0117 -0.007,-0.0234 -0.01,-0.0352 z m 0.0215,0.082 c -0.0375,0.30562 -0.053,0.36493 -0.084,0.625 l 0.8418,2.20703 c -0.36047,-0.94476 -0.55586,-1.88883 -0.75782,-2.83203 z m -238.36328,1.89844 c 0.11901,0.35703 0.31525,0.99539 0.51172,1.20508 -0.006,-0.0152 -0.0192,-0.0357 -0.0254,-0.0508 -0.11546,-0.28239 -0.16716,-0.55802 -0.25976,-0.83398 -0.0499,-0.0881 -0.18515,-0.23877 -0.22657,-0.32031 z m 0.75586,1.06445 c 0.036,0.18043 0.11314,0.38093 0.17188,0.56055 0.005,0.004 0.009,0.0114 0.0137,0.0156 -0.0558,-0.23972 -0.13241,-0.31007 -0.18555,-0.57617 z" />
    </clipPath>
  </defs>
  <sodipodi:namedview
     id="base"
     pagecolor="#ffffff"
     bordercolor="#666666"
     borderopacity="1.0"
     inkscape:pageopacity="0.0"
     inkscape:pageshadow="2"
     inkscape:zoom="0.98994949"
     inkscape:cx="129.15784"
     inkscape:cy="228.80633"
     inkscape:document-units="px"
     inkscape:current-layer="layer1"
     showgrid="false"
     units="px"
     inkscape:window-width="2560"
     inkscape:window-height="1017"
     inkscape:window-x="-8"
     inkscape:window-y="-8"
     inkscape:window-maximized="1" />
  <metadata
     id="metadata4235">
    <rdf:RDF>
      <cc:Work
         rdf:about="">
        <dc:format>image/svg+xml</dc:format>
        <dc:type
           rdf:resource="http://purl.org/dc/dcmitype/StillImage" />
        <dc:title></dc:title>
      </cc:Work>
    </rdf:RDF>
  </metadata>
  <g
     inkscape:label="Layer 1"
     inkscape:groupmode="layer"
     id="layer1"
     transform="translate(0,-702.36216)">
    <g
       transform="matrix(1.0617686,0,0,1.0617686,-111.78715,395.55541)"
       id="layer1-0"
       inkscape:label="Layer 1">
      <path
         sodipodi:nodetypes="cccccc"
         inkscape:connector-curvature="0"
         d="m 397.08001,459.30474 179.21704,0 21.56009,37.34318 -467.14285,0 21.56009,-37.34318 179.21705,0"
         style="fill:none;fill-rule:evenodd;stroke:#000000;stroke-width:3.76729918;stroke-linecap:round;stroke-linejoin:round;stroke-miterlimit:4;stroke-dasharray:none;stroke-opacity:1"
         id="path4192-7" />
      <path
         sodipodi:nodetypes="cc"
         inkscape:connector-curvature="0"
         id="path4227"
         d="m 267.94242,504.18252 0,85.69352"
         style="fill:none;fill-rule:evenodd;stroke:#000000;stroke-width:3.76729918;stroke-linecap:round;stroke-linejoin:round;stroke-miterlimit:4;stroke-dasharray:none;stroke-opacity:1" />
      <path
         sodipodi:nodetypes="cc"
         inkscape:connector-curvature="0"
         id="path4227-0"
         d="m 306.47974,504.18252 0,85.69352"
         style="fill:none;fill-rule:evenodd;stroke:#000000;stroke-width:3.76729918;stroke-linecap:round;stroke-linejoin:round;stroke-miterlimit:4;stroke-dasharray:none;stroke-opacity:1" />
      <path
         sodipodi:nodetypes="cc"
         inkscape:connector-curvature="0"
         id="path4227-7"
         d="m 345.01705,504.18252 0,85.69352"
         style="fill:none;fill-rule:evenodd;stroke:#000000;stroke-width:3.76729918;stroke-linecap:round;stroke-linejoin:round;stroke-miterlimit:4;stroke-dasharray:none;stroke-opacity:1" />
      <path
         sodipodi:nodetypes="cc"
         inkscape:connector-curvature="0"
         id="path4227-0-5"
         d="m 383.55437,504.18252 0,85.69352"
         style="fill:none;fill-rule:evenodd;stroke:#000000;stroke-width:3.76729918;stroke-linecap:round;stroke-linejoin:round;stroke-miterlimit:4;stroke-dasharray:none;stroke-opacity:1" />
      <path
         sodipodi:nodetypes="cc"
         inkscape:connector-curvature="0"
         id="path4227-7-3"
         d="m 422.09167,504.18252 0,85.69352"
         style="fill:none;fill-rule:evenodd;stroke:#000000;stroke-width:3.76729918;stroke-linecap:round;stroke-linejoin:round;stroke-miterlimit:4;stroke-dasharray:none;stroke-opacity:1" />
      <path
         sodipodi:nodetypes="cc"
         inkscape:connector-curvature="0"
         id="path4227-0-5-9"
         d="m 460.62902,504.18252 0,85.69352"
         style="fill:none;fill-rule:evenodd;stroke:#000000;stroke-width:3.76729918;stroke-linecap:round;stroke-linejoin:round;stroke-miterlimit:4;stroke-dasharray:none;stroke-opacity:1" />
      <path
         sodipodi:nodetypes="ccccc"
         inkscape:connector-curvature="0"
         id="rect4308"
         d="m 336.26662,447.74591 0,-15.72468 8.4853,0 47.55294,0 0,15.72468"
         style="opacity:1;fill:none;stroke:#000000;stroke-width:3.76729918;stroke-linecap:round;stroke-linejoin:round;stroke-miterlimit:4;stroke-dasharray:none;stroke-opacity:1" />
      <path
         sodipodi:nodetypes="cccc"
         inkscape:connector-curvature="0"
         id="rect4311"
         d="m 344.75191,424.48663 0,-38.92611 39.06765,0 0,38.92611"
         style="opacity:1;fill:none;stroke:#000000;stroke-width:3.76729918;stroke-linecap:round;stroke-linejoin:round;stroke-miterlimit:4;stroke-dasharray:none;stroke-opacity:1" />
      <path
         sodipodi:nodetypes="cccc"
         inkscape:connector-curvature="0"
         id="rect4314"
         d="m 350.85071,377.56052 0,-32.30509 26.87006,0 0,32.30509"
         style="opacity:1;fill:none;stroke:#000000;stroke-width:3.76729918;stroke-linecap:round;stroke-linejoin:round;stroke-miterlimit:4;stroke-dasharray:none;stroke-opacity:1" />
      <rect
         y="514.48718"
         x="279.83609"
         height="24.75"
         width="14.75"
         id="rect4323"
         style="opacity:1;fill:none;stroke:#000000;stroke-width:3.76729918;stroke-linecap:round;stroke-linejoin:round;stroke-miterlimit:4;stroke-dasharray:none;stroke-opacity:1" />
      <rect
         y="555.36218"
         x="279.83609"
         height="24.75"
         width="14.75"
         id="rect4323-0"
         style="opacity:1;fill:none;stroke:#000000;stroke-width:3.76729918;stroke-linecap:round;stroke-linejoin:round;stroke-miterlimit:4;stroke-dasharray:none;stroke-opacity:1" />
      <rect
         y="514.48718"
         x="318.37338"
         height="24.75"
         width="14.75"
         id="rect4323-3"
         style="opacity:1;fill:none;stroke:#000000;stroke-width:3.76729918;stroke-linecap:round;stroke-linejoin:round;stroke-miterlimit:4;stroke-dasharray:none;stroke-opacity:1" />
      <rect
         y="555.36218"
         x="318.37338"
         height="24.75"
         width="14.75"
         id="rect4323-0-7"
         style="opacity:1;fill:none;stroke:#000000;stroke-width:3.76729918;stroke-linecap:round;stroke-linejoin:round;stroke-miterlimit:4;stroke-dasharray:none;stroke-opacity:1" />
      <rect
         y="514.48718"
         x="356.91071"
         height="24.75"
         width="14.75"
         id="rect4323-30"
         style="opacity:1;fill:none;stroke:#000000;stroke-width:3.76729918;stroke-linecap:round;stroke-linejoin:round;stroke-miterlimit:4;stroke-dasharray:none;stroke-opacity:1" />
      <rect
         y="514.48718"
         x="395.44803"
         height="24.75"
         width="14.75"
         id="rect4323-1"
         style="opacity:1;fill:none;stroke:#000000;stroke-width:3.76729918;stroke-linecap:round;stroke-linejoin:round;stroke-miterlimit:4;stroke-dasharray:none;stroke-opacity:1" />
      <rect
         y="555.36218"
         x="395.44803"
         height="24.75"
         width="14.75"
         id="rect4323-0-69"
         style="opacity:1;fill:none;stroke:#000000;stroke-width:3.76729918;stroke-linecap:round;stroke-linejoin:round;stroke-miterlimit:4;stroke-dasharray:none;stroke-opacity:1" />
      <rect
         y="514.48718"
         x="433.98535"
         height="24.75"
         width="14.75"
         id="rect4323-7"
         style="opacity:1;fill:none;stroke:#000000;stroke-width:3.76729918;stroke-linecap:round;stroke-linejoin:round;stroke-miterlimit:4;stroke-dasharray:none;stroke-opacity:1" />
      <rect
         y="555.36218"
         x="433.98535"
         height="24.75"
         width="14.75"
         id="rect4323-0-0"
         style="opacity:1;fill:none;stroke:#000000;stroke-width:3.76729918;stroke-linecap:round;stroke-linejoin:round;stroke-miterlimit:4;stroke-dasharray:none;stroke-opacity:1" />
      <rect
         y="514.48718"
         x="151.14911"
         height="24.75"
         width="14.75"
         id="rect4323-16"
         style="opacity:1;fill:none;stroke:#000000;stroke-width:3.76729918;stroke-linecap:round;stroke-linejoin:round;stroke-miterlimit:4;stroke-dasharray:none;stroke-opacity:1" />
      <rect
         y="514.48718"
         x="178.64911"
         height="24.75"
         width="14.75"
         id="rect4323-16-8"
         style="opacity:1;fill:none;stroke:#000000;stroke-width:3.76729918;stroke-linecap:round;stroke-linejoin:round;stroke-miterlimit:4;stroke-dasharray:none;stroke-opacity:1" />
      <rect
         y="514.48718"
         x="206.14911"
         height="24.75"
         width="14.75"
         id="rect4323-16-4"
         style="opacity:1;fill:none;stroke:#000000;stroke-width:3.76729918;stroke-linecap:round;stroke-linejoin:round;stroke-miterlimit:4;stroke-dasharray:none;stroke-opacity:1" />
      <rect
         y="514.48718"
         x="233.64911"
         height="24.75"
         width="14.75"
         id="rect4323-16-81"
         style="opacity:1;fill:none;stroke:#000000;stroke-width:3.76729918;stroke-linecap:round;stroke-linejoin:round;stroke-miterlimit:4;stroke-dasharray:none;stroke-opacity:1" />
      <path
         sodipodi:nodetypes="cccc"
         inkscape:connector-curvature="0"
         id="rect4448"
         d="m 597.85718,504.64792 0,92.76272 -467.14289,0 0,-92.76272"
         style="opacity:1;fill:none;stroke:#000000;stroke-width:3.76729918;stroke-linecap:round;stroke-linejoin:round;stroke-miterlimit:4;stroke-dasharray:none;stroke-opacity:1" />
      <rect
         y="555.36218"
         x="151.14911"
         height="24.75"
         width="14.75"
         id="rect4323-16-47"
         style="opacity:1;fill:none;stroke:#000000;stroke-width:3.76729918;stroke-linecap:round;stroke-linejoin:round;stroke-miterlimit:4;stroke-dasharray:none;stroke-opacity:1" />
      <rect
         y="555.36218"
         x="178.64911"
         height="24.75"
         width="14.75"
         id="rect4323-16-8-1"
         style="opacity:1;fill:none;stroke:#000000;stroke-width:3.76729918;stroke-linecap:round;stroke-linejoin:round;stroke-miterlimit:4;stroke-dasharray:none;stroke-opacity:1" />
      <rect
         y="555.36218"
         x="206.14911"
         height="24.75"
         width="14.75"
         id="rect4323-16-4-5"
         style="opacity:1;fill:none;stroke:#000000;stroke-width:3.76729918;stroke-linecap:round;stroke-linejoin:round;stroke-miterlimit:4;stroke-dasharray:none;stroke-opacity:1" />
      <rect
         y="555.36218"
         x="233.64911"
         height="24.75"
         width="14.75"
         id="rect4323-16-81-3"
         style="opacity:1;fill:none;stroke:#000000;stroke-width:3.76729918;stroke-linecap:round;stroke-linejoin:round;stroke-miterlimit:4;stroke-dasharray:none;stroke-opacity:1" />
      <rect
         y="514.48718"
         x="480.17233"
         height="24.75"
         width="14.75"
         id="rect4323-16-0"
         style="opacity:1;fill:none;stroke:#000000;stroke-width:3.76729918;stroke-linecap:round;stroke-linejoin:round;stroke-miterlimit:4;stroke-dasharray:none;stroke-opacity:1" />
      <rect
         y="514.48718"
         x="507.67233"
         height="24.75"
         width="14.75"
         id="rect4323-16-8-14"
         style="opacity:1;fill:none;stroke:#000000;stroke-width:3.76729918;stroke-linecap:round;stroke-linejoin:round;stroke-miterlimit:4;stroke-dasharray:none;stroke-opacity:1" />
      <rect
         y="514.48718"
         x="535.1723"
         height="24.75"
         width="14.75"
         id="rect4323-16-4-3"
         style="opacity:1;fill:none;stroke:#000000;stroke-width:3.76729918;stroke-linecap:round;stroke-linejoin:round;stroke-miterlimit:4;stroke-dasharray:none;stroke-opacity:1" />
      <rect
         y="514.48718"
         x="562.6723"
         height="24.75"
         width="14.75"
         id="rect4323-16-81-2"
         style="opacity:1;fill:none;stroke:#000000;stroke-width:3.76729918;stroke-linecap:round;stroke-linejoin:round;stroke-miterlimit:4;stroke-dasharray:none;stroke-opacity:1" />
      <rect
         y="555.36218"
         x="480.17233"
         height="24.75"
         width="14.75"
         id="rect4323-16-47-9"
         style="opacity:1;fill:none;stroke:#000000;stroke-width:3.76729918;stroke-linecap:round;stroke-linejoin:round;stroke-miterlimit:4;stroke-dasharray:none;stroke-opacity:1" />
      <rect
         y="555.36218"
         x="507.67233"
         height="24.75"
         width="14.75"
         id="rect4323-16-8-1-0"
         style="opacity:1;fill:none;stroke:#000000;stroke-width:3.76729918;stroke-linecap:round;stroke-linejoin:round;stroke-miterlimit:4;stroke-dasharray:none;stroke-opacity:1" />
      <rect
         y="555.36218"
         x="535.1723"
         height="24.75"
         width="14.75"
         id="rect4323-16-4-5-8"
         style="opacity:1;fill:none;stroke:#000000;stroke-width:3.76729918;stroke-linecap:round;stroke-linejoin:round;stroke-miterlimit:4;stroke-dasharray:none;stroke-opacity:1" />
      <rect
         y="555.36218"
         x="562.6723"
         height="24.75"
         width="14.75"
         id="rect4323-16-81-3-1"
         style="opacity:1;fill:none;stroke:#000000;stroke-width:3.76729918;stroke-linecap:round;stroke-linejoin:round;stroke-miterlimit:4;stroke-dasharray:none;stroke-opacity:1" />
      <circle
         r="9.5625"
         cy="405.00403"
         cx="364.28574"
         id="path4521"
         style="opacity:1;fill:none;stroke:#000000;stroke-width:3.76729918;stroke-linecap:round;stroke-linejoin:round;stroke-miterlimit:4;stroke-dasharray:none;stroke-opacity:1" />
      <path
         sodipodi:nodetypes="csssc"
         inkscape:connector-curvature="0"
         id="path4521-2"
         d="m 354.72324,337.25543 0,-1.77165 c 0,-5.28122 4.28128,-9.5625 9.5625,-9.5625 5.28122,0 9.5625,4.28128 9.5625,9.5625 l 0,1.77165"
         style="opacity:1;fill:none;stroke:#000000;stroke-width:3.76729918;stroke-linecap:round;stroke-linejoin:round;stroke-miterlimit:4;stroke-dasharray:none;stroke-opacity:1" />
      <path
         sodipodi:nodetypes="ccc"
         inkscape:connector-curvature="0"
         d="m 461.04843,487.98008 -96.76271,-43.37615 -96.76271,43.37615"
         style="fill:none;fill-rule:evenodd;stroke:#000000;stroke-width:3.76729918;stroke-linecap:round;stroke-linejoin:round;stroke-miterlimit:4;stroke-dasharray:none;stroke-opacity:1"
         id="path4539-5" />
      <path
         inkscape:connector-curvature="0"
         id="path4557"
         d="m 364.28574,317.92128 0,-7.75"
         style="fill:none;fill-rule:evenodd;stroke:#000000;stroke-width:3.76729918;stroke-linecap:round;stroke-linejoin:round;stroke-miterlimit:4;stroke-dasharray:none;stroke-opacity:1" />
      <path
         sodipodi:nodetypes="ccccccccccc"
         inkscape:connector-curvature="0"
         d="m 366.05173,379.71849 0,-2.14115 c 0,0 4.10384,0.41593 6.00789,-5.54235 -2.94489,1.59075 -4.34141,2.11489 -6.14648,1.95538 -0.0683,-2.8944 -1.62741,-2.72923 -1.62741,-2.72923 0,0 -1.55909,-0.16693 -1.62741,2.72747 -1.80506,0.15952 -3.20158,-0.36463 -6.14647,-1.95538 1.90404,5.95828 6.00788,5.54235 6.00788,5.54235 l 0,2.14115 1.76599,0.002 z"
         style="fill:#000000;fill-opacity:1;fill-rule:evenodd;stroke:#000000;stroke-width:1.5;stroke-linecap:round;stroke-linejoin:round;stroke-miterlimit:4;stroke-dasharray:none;stroke-opacity:1"
         id="path4635-3" />
      <circle
         cx="364.28571"
         cy="467.22943"
         r="7.9375"
         id="path4521-0"
         style="opacity:1;fill:none;stroke:#000000;stroke-width:3.76729918;stroke-linecap:round;stroke-linejoin:round;stroke-miterlimit:4;stroke-dasharray:none;stroke-opacity:1" />
      <path
         sodipodi:nodetypes="cccc"
         inkscape:connector-curvature="0"
         id="rect4323-0-7-8"
         d="m 354.69215,589.87604 0,-37.822 19.18718,0 0,37.822"
         style="opacity:1;fill:none;stroke:#000000;stroke-width:3.76729918;stroke-linecap:round;stroke-linejoin:round;stroke-miterlimit:4;stroke-dasharray:none;stroke-opacity:1" />
      <path
         inkscape:connector-curvature="0"
         id="path4557-1"
         d="m 152.27438,451.30474 0,-7.75"
         style="fill:none;fill-rule:evenodd;stroke:#000000;stroke-width:3.76729918;stroke-linecap:round;stroke-linejoin:round;stroke-miterlimit:4;stroke-dasharray:none;stroke-opacity:1" />
      <path
         inkscape:connector-curvature="0"
         id="path4557-1-3"
         d="m 576.29705,451.30474 0,-7.75"
         style="fill:none;fill-rule:evenodd;stroke:#000000;stroke-width:3.76729918;stroke-linecap:round;stroke-linejoin:round;stroke-miterlimit:4;stroke-dasharray:none;stroke-opacity:1" />
    </g>
  </g>
</svg>
